<?xml version="1.0" standalone="no"?>
<!DOCTYPE svg PUBLIC "-//W3C//DTD SVG 20010904//EN"
 "http://www.w3.org/TR/2001/REC-SVG-20010904/DTD/svg10.dtd">
<svg version="1.0" xmlns="http://www.w3.org/2000/svg"
 width="700.000000pt" height="700.000000pt" viewBox="0 0 700.000000 700.000000"
 preserveAspectRatio="xMidYMid meet">
<metadata>
Created by potrace 1.11, written by Peter Selinger 2001-2013
</metadata>
<g transform="translate(0.000000,700.000000) scale(0.100000,-0.100000)"
fill="#000000" stroke="none">
<path d="M0 6224 l0 -776 1133 -1134 1134 -1133 -21 -23 c-12 -13 -41 -48 -66
-78 -25 -30 -54 -64 -65 -76 -11 -11 -58 -67 -105 -124 -47 -57 -90 -108 -95
-114 -6 -6 -73 -85 -150 -176 -77 -91 -142 -167 -145 -170 -3 -3 -27 -32 -55
-65 -27 -33 -52 -62 -55 -65 -3 -3 -27 -32 -55 -65 -27 -33 -52 -62 -55 -65
-7 -6 -189 -222 -269 -319 -30 -36 -57 -68 -61 -71 -3 -3 -41 -48 -85 -100
-44 -52 -82 -97 -85 -100 -3 -3 -27 -32 -55 -65 -27 -33 -52 -62 -55 -65 -3
-3 -27 -32 -55 -65 -27 -33 -60 -71 -72 -85 -42 -50 -447 -526 -482 -568 -20
-24 -41 -49 -46 -55 -6 -7 -38 -45 -73 -85 l-62 -73 0 -255 0 -254 3285 0
c1807 0 3284 3 3283 8 -1 4 2 30 6 57 4 28 10 61 12 75 1 14 10 65 19 115 9
50 18 101 20 115 2 14 15 93 29 175 14 83 28 168 31 190 3 22 11 67 17 100 5
33 12 74 15 90 2 17 15 95 29 175 14 80 27 161 30 180 3 19 41 246 84 505 43
259 81 484 84 500 3 17 12 75 22 130 9 55 17 109 19 120 1 11 6 36 9 55 l7 35
-130 0 -129 1 -46 -96 c-132 -279 -172 -365 -219 -465 -120 -258 -200 -382
-320 -494 -126 -118 -346 -210 -562 -236 -27 -3 -66 -8 -85 -12 -42 -8 -3960
-13 -3960 -5 0 4 133 164 165 198 5 6 28 32 50 59 22 27 69 83 105 125 36 42
83 98 105 125 22 26 47 55 56 64 8 9 37 43 65 76 27 33 51 62 54 65 3 3 41 48
85 100 44 52 95 113 115 135 19 22 55 65 80 95 25 30 61 73 81 95 19 22 96
112 170 200 73 88 144 171 155 185 12 14 54 63 94 110 40 47 82 96 94 110 12
14 69 82 127 151 58 69 117 139 131 155 88 100 288 340 288 345 0 3 -540 545
-1200 1205 -660 659 -1200 1201 -1200 1204 0 7 4702 4 4745 -3 145 -21 222
-41 290 -75 178 -88 278 -215 454 -574 l106 -218 118 0 117 0 -4 28 c-3 15
-12 68 -21 117 -9 50 -18 106 -21 125 -3 19 -14 82 -24 140 -10 58 -21 123
-25 145 -3 22 -7 47 -10 55 -2 8 -6 33 -10 55 -3 22 -10 65 -15 95 -6 30 -12
66 -15 80 -4 25 -42 251 -50 300 -7 40 -14 83 -20 110 -3 14 -7 36 -9 50 -3
14 -8 45 -12 70 -4 25 -8 52 -9 60 -1 8 -7 43 -14 77 -12 66 -15 83 -26 148
-3 22 -9 52 -11 68 l-6 27 -3349 0 -3349 0 0 -776z"/>
</g>
</svg>
